<?xml version="1.0" encoding="iso-8859-1"?>
<!-- Generator: Adobe Illustrator 18.1.1, SVG Export Plug-In . SVG Version: 6.00 Build 0)  -->
<svg version="1.1" id="Capa_1" xmlns="http://www.w3.org/2000/svg" xmlns:xlink="http://www.w3.org/1999/xlink" x="0px" y="0px"
	 viewBox="0 0 437.663 437.663" style="enable-background:new 0 0 437.663 437.663;" xml:space="preserve">
<g>
	<path style="fill:#010002;" d="M280.277,87.182c-86.789,0-157.385,70.605-157.385,157.385c0,86.789,70.605,157.385,157.385,157.385
		c8.153,0,16.412-0.65,24.565-1.943l95.738,23.589c0.642,0.163,1.292,0.236,1.943,0.236c1.805,0,3.56-0.593,5.015-1.731
		c1.959-1.536,3.113-3.894,3.113-6.397v-83.017c17.68-26.101,27.011-56.51,27.011-88.122
		C437.671,157.778,367.066,87.182,280.277,87.182z M395.801,325.585c-1.171,1.674-1.634,3.658-1.406,5.584v74.173l-86.179-21.24
		c-1.325-0.504-2.78-0.675-4.259-0.415c-7.86,1.333-15.826,2.016-23.679,2.016c-77.815,0-141.128-63.313-141.128-141.128
		s63.313-141.128,141.128-141.128s141.128,63.313,141.128,141.128C421.414,273.724,412.562,301.736,395.801,325.585z"/>
	<path style="fill:#010002;" d="M39.72,411.049c0.309,2.479,1.74,4.674,3.877,5.958c1.276,0.772,2.731,1.162,4.186,1.162
		c0.984,0,1.967-0.171,2.902-0.545l93.097-35.668c7.21,1.707,14.599,2.991,22.004,3.829c4.503,0.569,8.478-2.707,8.982-7.161
		c0.504-4.463-2.699-8.486-7.161-8.982c-7.6-0.862-15.168-2.235-22.508-4.097c-1.975-0.488-4.016-0.203-5.747,0.699l-84.805,32.49
		l-13.38-107.362c0.016-1.439-0.358-2.894-1.13-4.211c-4.918-8.316-9.137-17.005-12.518-25.8
		C-6.06,173.694,37.932,75.054,125.582,41.459c60.062-22.996,127.066-10.551,174.894,32.466c3.341,3.008,8.478,2.739,11.478-0.602
		c3.008-3.341,2.731-8.478-0.602-11.478C258.948,14.707,185.539,1.084,119.778,26.282C23.756,63.081-24.439,171.15,12.351,267.189
		c3.495,9.063,7.771,18.013,12.737,26.605L39.72,411.049z"/>
	<circle style="fill:#010002;" cx="202.56" cy="237.154" r="21.134"/>
	<circle style="fill:#010002;" cx="278.765" cy="237.154" r="21.134"/>
	<circle style="fill:#010002;" cx="354.971" cy="237.154" r="21.134"/>
</g>
<g>
</g>
<g>
</g>
<g>
</g>
<g>
</g>
<g>
</g>
<g>
</g>
<g>
</g>
<g>
</g>
<g>
</g>
<g>
</g>
<g>
</g>
<g>
</g>
<g>
</g>
<g>
</g>
<g>
</g>
</svg>
